<svg width="550" height="539" viewBox="0 0 550 539" fill="none" xmlns="http://www.w3.org/2000/svg">
<path d="M550 412.227H0V412.497H550V412.227Z" fill="#EBEBEB"/>
<path d="M494.89 429.572H458.458V429.842H494.89V429.572Z" fill="#EBEBEB"/>
<path d="M364.342 432.504H354.783V432.774H364.342V432.504Z" fill="#EBEBEB"/>
<path d="M457.358 419.568H436.249V419.838H457.358V419.568Z" fill="#EBEBEB"/>
<path d="M105.215 421.379H57.7061V421.649H105.215V421.379Z" fill="#EBEBEB"/>
<path d="M121.979 421.379H115.016V421.649H121.979V421.379Z" fill="#EBEBEB"/>
<path d="M247.665 425.929H144.617V426.198H247.665V425.929Z" fill="#EBEBEB"/>
<path d="M260.7 364.148H48.301C46.6371 364.146 45.0423 363.496 43.8668 362.342C42.6912 361.188 42.031 359.624 42.031 357.993V65.3915C42.0455 63.7702 42.7121 62.22 43.8861 61.0775C45.0601 59.9351 46.6466 59.2928 48.301 59.29H260.7C262.366 59.29 263.963 59.9385 265.141 61.0928C266.319 62.2472 266.981 63.8128 266.981 65.4454V357.993C266.981 359.626 266.319 361.191 265.141 362.346C263.963 363.5 262.366 364.148 260.7 364.148ZM48.301 59.5056C46.71 59.5084 45.1852 60.1298 44.0612 61.2333C42.9373 62.3368 42.306 63.8323 42.306 65.3915V357.993C42.306 359.552 42.9373 361.048 44.0612 362.151C45.1852 363.255 46.71 363.876 48.301 363.879H260.7C262.292 363.876 263.818 363.255 264.944 362.152C266.069 361.049 266.703 359.553 266.706 357.993V65.3915C266.703 63.8313 266.069 62.3359 264.944 61.2327C263.818 60.1295 262.292 59.5084 260.7 59.5056H48.301Z" fill="#EBEBEB"/>
<path d="M498.641 364.148H286.231C284.566 364.146 282.97 363.496 281.793 362.342C280.616 361.189 279.953 359.625 279.95 357.993V65.3915C279.967 63.7692 280.636 62.219 281.812 61.0769C282.988 59.9347 284.575 59.2927 286.231 59.29H498.641C500.293 59.2956 501.877 59.9392 503.049 61.0813C504.22 62.2234 504.885 63.772 504.9 65.3915V357.993C504.9 359.622 504.241 361.184 503.068 362.338C501.895 363.492 500.303 364.143 498.641 364.148ZM286.231 59.5056C284.639 59.5084 283.113 60.1295 281.987 61.2327C280.862 62.3359 280.228 63.8313 280.225 65.3915V357.993C280.228 359.553 280.862 361.049 281.987 362.152C283.113 363.255 284.639 363.876 286.231 363.879H498.641C500.233 363.876 501.759 363.255 502.885 362.152C504.01 361.049 504.644 359.553 504.647 357.993V65.3915C504.644 63.8313 504.01 62.3359 502.885 61.2327C501.759 60.1295 500.233 59.5084 498.641 59.5056H286.231Z" fill="#EBEBEB"/>
<path d="M395.252 205.089C427.098 205.089 452.914 179.79 452.914 148.581C452.914 117.372 427.098 92.072 395.252 92.072C363.406 92.072 337.59 117.372 337.59 148.581C337.59 179.79 363.406 205.089 395.252 205.089Z" fill="#E0E0E0"/>
<path d="M390.874 205.089C422.72 205.089 448.536 179.79 448.536 148.581C448.536 117.372 422.72 92.072 390.874 92.072C359.028 92.072 333.212 117.372 333.212 148.581C333.212 179.79 359.028 205.089 390.874 205.089Z" fill="#F5F5F5"/>
<path d="M428.564 185.52C449.377 165.123 449.377 132.054 428.564 111.657C407.751 91.2602 374.006 91.2602 353.193 111.657C332.38 132.054 332.38 165.123 353.193 185.52C374.006 205.917 407.751 205.917 428.564 185.52Z" fill="white"/>
<path d="M399.96 186.591C399.67 186.591 399.388 186.496 399.161 186.32C398.933 186.144 398.773 185.897 398.706 185.621L389.62 148.883C389.556 148.561 389.62 148.228 389.8 147.953C389.98 147.677 390.261 147.48 390.585 147.402C390.91 147.324 391.252 147.372 391.541 147.535C391.831 147.699 392.045 147.965 392.139 148.279L401.214 185.028C401.293 185.355 401.237 185.7 401.058 185.987C400.879 186.274 400.591 186.479 400.257 186.559C400.159 186.58 400.06 186.591 399.96 186.591Z" fill="#F5F5F5"/>
<path d="M390.874 151.114C390.535 151.114 390.199 151.048 389.885 150.921C389.572 150.793 389.287 150.606 389.048 150.37L357.863 119.809C357.623 119.573 357.433 119.293 357.304 118.986C357.174 118.678 357.108 118.348 357.108 118.016C357.109 117.343 357.383 116.699 357.869 116.225C358.354 115.75 359.013 115.484 359.698 115.485C360.384 115.486 361.042 115.754 361.526 116.23L390.874 145.002L408.001 128.217C408.487 127.743 409.145 127.477 409.831 127.478C410.517 127.479 411.174 127.747 411.659 128.223C412.143 128.699 412.414 129.344 412.413 130.016C412.412 130.688 412.139 131.332 411.653 131.807L392.7 150.37C392.216 150.845 391.559 151.113 390.874 151.114Z" fill="#EBEBEB"/>
<path d="M243.65 404.358H252.34V346.038H243.65V404.358Z" fill="#F0F0F0"/>
<path d="M67.881 412.227H246.609V404.358H67.881V412.227Z" fill="#F0F0F0"/>
<path d="M243.65 346.038H62.139V404.358H243.65V346.038Z" fill="#F5F5F5"/>
<path d="M231.902 356.193H73.876V389.503H231.902V356.193Z" fill="#F0F0F0"/>
<path d="M114.455 360.645H191.345C192.785 360.645 193.952 359.501 193.952 358.09V357.616C193.952 356.205 192.785 355.061 191.345 355.061H114.455C113.015 355.061 111.848 356.205 111.848 357.616V358.09C111.848 359.501 113.015 360.645 114.455 360.645Z" fill="#F5F5F5"/>
<path d="M58.157 346.038H243.65V340.831H58.157V346.038Z" fill="#F0F0F0"/>
<path d="M256.509 340.831H243.65V346.038H256.509V340.831Z" fill="#E6E6E6"/>
<path d="M472.659 284.463H455.719V412.227H472.659V284.463Z" fill="#F0F0F0"/>
<path d="M307.45 412.227H455.719V284.463H307.45V412.227Z" fill="#F5F5F5"/>
<path d="M306.097 401.005H436.271V332.671H306.097V401.005Z" fill="#FAFAFA"/>
<path d="M306.097 325.427H436.271V302.929H306.097V325.427Z" fill="#FAFAFA"/>
<g style="mix-blend-mode:multiply" opacity="0.7">
<path d="M437.437 332.671H436.271V401.005H437.437V332.671Z" fill="#E6E6E6"/>
</g>
<g style="mix-blend-mode:multiply" opacity="0.7">
<path d="M437.437 302.929H436.271V325.427H437.437V302.929Z" fill="#E6E6E6"/>
</g>
<g style="mix-blend-mode:multiply" opacity="0.7">
<path d="M472.659 289.853H307.076V292.742H472.659V289.853Z" fill="#E6E6E6"/>
</g>
<path d="M474.639 282.716H455.719V291.071H474.639V282.716Z" fill="#F0F0F0"/>
<path d="M305.47 291.071H455.719V282.716H305.47V291.071Z" fill="#F5F5F5"/>
<path d="M361.834 258.116C360.812 256.538 360.138 254.769 359.854 252.92C359.556 251.074 359.46 249.202 359.568 247.336C359.804 243.623 360.612 239.967 361.966 236.492C362.61 234.767 363.345 233.076 364.166 231.425C365.046 229.808 365.926 228.191 366.916 226.649C367.906 225.108 368.995 223.62 370.117 222.176C371.239 220.731 372.504 219.384 373.813 218.079C373.175 219.815 372.416 221.454 371.613 223.092C370.81 224.731 370.183 226.38 369.413 227.975L367.279 232.826L366.3 235.273L365.794 236.492L365.354 237.721C364.097 240.96 363.101 244.29 362.373 247.681C361.995 249.376 361.738 251.094 361.603 252.823C361.439 254.59 361.516 256.37 361.834 258.116Z" fill="#E6E6E6"/>
<path d="M340.483 260.973C340.624 258.37 340.391 255.761 339.79 253.222C339.227 250.907 338.124 248.752 336.567 246.927C334.907 245.117 332.942 243.6 330.759 242.442C328.504 241.159 326.018 240.157 323.455 238.971C326.303 238.673 329.183 238.975 331.903 239.855C333.308 240.306 334.652 240.921 335.907 241.688C337.19 242.497 338.349 243.481 339.35 244.609C341.348 246.918 342.508 249.81 342.65 252.834C342.802 255.701 342.045 258.544 340.483 260.973Z" fill="#E6E6E6"/>
<path d="M341.44 260.596C341.347 257.562 341.057 254.538 340.571 251.541C340.117 248.684 339.308 245.893 338.162 243.229C337.016 240.61 335.44 238.192 333.498 236.071C331.402 233.878 329.071 231.912 326.546 230.207C329.799 230.701 332.868 232.008 335.456 234.001C338.109 236.067 340.193 238.75 341.517 241.806C342.823 244.814 343.471 248.057 343.42 251.325C343.439 254.518 342.764 257.678 341.44 260.596Z" fill="#E6E6E6"/>
<path d="M360.371 255.087C357.981 252.049 355.952 248.754 354.321 245.267C352.663 241.788 351.298 238.183 350.24 234.487C349.169 230.78 348.458 226.983 348.117 223.146C347.757 219.309 347.938 215.442 348.656 211.654C349.459 215.438 350.075 219.093 350.955 222.726C351.835 226.358 352.715 229.937 353.76 233.506C354.805 237.074 355.861 240.642 356.994 244.21C358.127 247.778 359.282 251.4 360.371 255.087Z" fill="#E6E6E6"/>
<path d="M359.381 254.818C356.658 252.207 354.231 249.316 352.143 246.194C350.052 243.08 348.213 239.811 346.643 236.416C345.051 233.013 343.784 229.473 342.859 225.841C341.923 222.203 341.497 218.456 341.594 214.705C342.98 218.22 344.179 221.626 345.598 224.979C347.017 228.331 348.425 231.651 349.998 234.939C351.571 238.227 353.089 241.504 354.695 244.803C356.301 248.102 357.852 251.39 359.381 254.818Z" fill="#E6E6E6"/>
<path d="M363.473 258.267C360.389 256.667 357.524 254.689 354.948 252.381C352.354 250.089 349.986 247.563 347.875 244.835C345.722 242.123 343.877 239.188 342.375 236.082C340.872 232.979 339.87 229.666 339.405 226.261C341.297 229.161 342.969 231.996 344.905 234.702C346.841 237.408 348.711 240.092 350.768 242.669C352.825 245.245 354.882 247.832 357.016 250.398C359.15 252.963 361.317 255.572 363.473 258.267Z" fill="#E6E6E6"/>
<path d="M357.5 254.839C354.503 253.63 351.725 251.956 349.272 249.88C346.797 247.84 344.582 245.517 342.672 242.96C341.702 241.684 340.806 240.356 339.988 238.982C339.192 237.588 338.483 236.148 337.865 234.67C336.6 231.742 335.823 228.633 335.566 225.464C337.293 228.169 338.712 230.854 340.428 233.376C341.198 234.681 342.122 235.888 342.925 237.16C343.728 238.432 344.663 239.618 345.609 240.804C347.428 243.204 349.334 245.558 351.329 247.864C353.265 250.204 355.3 252.478 357.5 254.839Z" fill="#E6E6E6"/>
<path d="M362.186 256.683C360.763 255.698 359.626 254.368 358.886 252.823C358.122 251.281 357.585 249.641 357.291 247.951C356.741 244.599 356.838 241.177 357.577 237.861C357.933 236.233 358.373 234.625 358.897 233.042C359.524 231.5 360.085 229.937 360.833 228.461C361.581 226.984 362.373 225.539 363.264 224.149C364.18 222.77 365.168 221.439 366.223 220.16C365.871 221.788 365.376 223.329 364.903 224.871C364.43 226.412 364.034 227.965 363.517 229.463C363 230.961 362.692 232.514 362.219 234.012L361.68 236.287C361.493 237.041 361.273 237.796 361.163 238.561C360.499 241.554 360.16 244.608 360.151 247.67C360.137 249.2 360.277 250.728 360.569 252.23C360.844 253.794 361.391 255.3 362.186 256.683Z" fill="#E6E6E6"/>
<path d="M360.14 253.244C357.729 250.717 355.981 247.654 355.047 244.318C354.031 240.95 353.706 237.418 354.09 233.926C354.145 233.053 354.365 232.201 354.508 231.339L354.761 230.045L355.146 228.795C355.432 227.965 355.674 227.135 355.993 226.326C356.312 225.518 356.73 224.741 357.093 223.965L357.687 222.812L358.402 221.734L359.854 219.578C360.94 218.251 362.112 216.994 363.363 215.816C362.791 217.443 362.032 218.92 361.416 220.451L360.547 222.747L360.107 223.825L359.755 224.989C359.524 225.755 359.282 226.52 359.029 227.275L358.49 229.592L358.204 230.746L358.039 231.91C357.94 232.686 357.742 233.462 357.698 234.239C357.363 237.377 357.407 240.543 357.83 243.671C358.238 246.936 359.012 250.146 360.14 253.244Z" fill="#E6E6E6"/>
<path d="M355.498 251.929L339.735 238.184L342.067 256.844L355.498 251.929Z" fill="#E6E6E6"/>
<path d="M325.116 249.417H370.854L364.859 282.716H331.111L325.116 249.417Z" fill="#F5F5F5"/>
<path d="M353.694 249.417H370.854L364.859 282.716H355.85L353.694 249.417Z" fill="#EBEBEB"/>
<path d="M411.246 258.181C411.461 256.709 411.398 255.211 411.059 253.761C410.768 252.374 410.314 251.025 409.706 249.74C408.473 247.163 406.91 244.75 405.053 242.561C404.635 241.968 404.096 241.483 403.623 240.911C403.15 240.34 402.666 239.833 402.16 239.262C401.06 238.184 400.114 237.106 399.025 236.028C397.936 234.95 396.891 233.872 395.791 232.794C394.691 231.716 393.591 230.638 392.491 229.463C393.976 230.013 395.384 230.692 396.814 231.382C398.201 232.129 399.549 232.946 400.851 233.829C401.507 234.27 402.139 234.745 402.743 235.252C403.359 235.748 403.964 236.265 404.569 236.772C405.742 237.857 406.844 239.012 407.869 240.232C409.981 242.725 411.523 245.633 412.39 248.759C412.807 250.342 412.952 251.981 412.819 253.61C412.744 255.249 412.199 256.833 411.246 258.181Z" fill="#E6E6E6"/>
<path d="M436.964 253.664C435.805 252.685 434.948 251.408 434.489 249.977C434.235 249.241 434.069 248.477 433.994 247.703C433.972 247.308 433.972 246.912 433.994 246.517C433.981 246.122 434.018 245.728 434.104 245.342C434.75 242.276 436.385 239.494 438.768 237.408C439.318 236.88 439.945 236.459 440.528 235.985C441.108 235.513 441.726 235.087 442.376 234.713C443.014 234.346 443.652 233.969 444.312 233.635C444.631 233.462 444.95 233.268 445.291 233.117L446.303 232.697C446.985 232.417 447.667 232.158 448.349 231.899C449.027 231.63 449.726 231.414 450.439 231.253C451.856 230.891 453.292 230.603 454.74 230.39C453.603 231.273 452.417 232.093 451.187 232.848C450.582 233.204 450.01 233.603 449.438 234.012C448.866 234.422 448.338 234.788 447.7 235.166C446.501 235.866 445.5 236.761 444.4 237.516C443.851 237.893 443.329 238.307 442.838 238.755C442.332 239.187 441.738 239.575 441.32 240.027C439.415 241.678 437.911 243.726 436.92 246.021C436.71 246.598 436.541 247.189 436.414 247.789C436.313 248.413 436.261 249.044 436.26 249.676C436.26 251.035 436.498 252.384 436.964 253.664Z" fill="#E6E6E6"/>
<path d="M435.787 253.664C433.8 251.128 432.718 248.022 432.707 244.825C432.661 241.549 433.512 238.322 435.171 235.478L436.491 233.43C436.997 232.794 437.536 232.19 438.075 231.587L438.9 230.692L439.802 229.916L441.65 228.396C442.956 227.508 444.311 226.691 445.709 225.949C447.144 225.311 448.613 224.75 450.109 224.267C449.009 225.41 447.909 226.423 446.732 227.393C445.555 228.363 444.598 229.474 443.564 230.498C443.08 231.059 442.607 231.576 442.112 232.126L441.375 232.913L440.748 233.775C440.33 234.346 439.868 234.853 439.461 235.457L438.361 237.235C436.966 239.634 436.024 242.26 435.578 244.986C435.122 247.868 435.193 250.807 435.787 253.664Z" fill="#E6E6E6"/>
<path d="M412.654 255.26C413.567 251.929 414.557 248.716 415.514 245.558C416.471 242.399 417.406 239.176 418.264 235.985C419.122 232.794 419.837 229.582 420.464 226.283C421.091 222.984 421.432 219.815 421.729 216.322C422.885 219.614 423.429 223.083 423.335 226.563C423.203 230.028 422.69 233.469 421.806 236.826C420.909 240.163 419.697 243.411 418.187 246.528C416.711 249.648 414.853 252.58 412.654 255.26Z" fill="#E6E6E6"/>
<path d="M413.798 254.721C415.228 251.487 416.768 248.253 418.286 245.159C419.804 242.065 421.333 238.917 422.796 235.791C424.259 232.665 425.667 229.528 426.976 226.348C428.285 223.168 429.407 219.88 430.507 216.495C430.847 220.074 430.583 223.683 429.726 227.178C428.858 230.653 427.654 234.039 426.129 237.289C424.597 240.514 422.806 243.614 420.772 246.56C418.758 249.521 416.419 252.258 413.798 254.721Z" fill="#E6E6E6"/>
<path d="M409.321 258.828C411.466 255.939 413.721 253.211 415.921 250.484C418.121 247.757 420.321 245.094 422.455 242.345C424.589 239.596 426.679 236.869 428.681 234.045C430.683 231.22 432.509 228.31 434.368 225.227C433.881 228.789 432.8 232.249 431.167 235.468C429.531 238.665 427.586 241.7 425.359 244.533C423.13 247.339 420.676 249.967 418.022 252.392C415.37 254.842 412.452 257 409.321 258.828Z" fill="#E6E6E6"/>
<path d="M416.053 254.128C418.154 251.551 420.255 249.115 422.323 246.646C424.391 244.178 426.393 241.731 428.351 239.241C430.309 236.75 432.124 234.185 433.851 231.565C435.578 228.946 437.151 226.175 438.845 223.308C438.598 226.622 437.764 229.868 436.381 232.902C435.003 235.931 433.264 238.79 431.2 241.418C429.154 244.033 426.847 246.442 424.314 248.608C421.821 250.798 419.043 252.653 416.053 254.128Z" fill="#E6E6E6"/>
<path d="M410.674 257.135C411.868 254.797 412.443 252.202 412.346 249.589C412.2 247.095 411.55 244.655 410.432 242.41L410.058 241.537L409.585 240.696L408.661 238.993C407.924 237.915 407.264 236.761 406.461 235.651C405.658 234.54 404.932 233.43 404.118 232.32C403.263 231.203 402.466 230.044 401.731 228.849C402.996 229.53 404.222 230.279 405.405 231.091C406.558 231.951 407.66 232.876 408.705 233.861C409.227 234.362 409.715 234.895 410.168 235.457C410.637 236.01 411.099 236.571 411.554 237.138L412.731 239.003L413.292 239.952L413.754 240.965C415.096 243.698 415.593 246.756 415.184 249.762C414.989 251.228 414.487 252.64 413.711 253.908C412.936 255.177 411.902 256.275 410.674 257.135Z" fill="#E6E6E6"/>
<path d="M412.72 253.697C413.625 251.025 414.244 248.268 414.568 245.471C414.865 242.864 414.667 240.225 413.985 237.688C413.642 236.438 413.163 235.227 412.555 234.077C411.95 232.891 411.235 231.762 410.421 230.703C408.67 228.46 406.751 226.349 404.679 224.386C407.626 225.241 410.328 226.762 412.566 228.827C413.733 229.879 414.747 231.083 415.58 232.406C416.438 233.742 417.091 235.195 417.516 236.718C418.344 239.765 418.295 242.978 417.373 246C416.54 248.922 414.935 251.577 412.72 253.697Z" fill="#E6E6E6"/>
<path d="M418.099 251.142L435.303 234.95L434.61 250.829L418.099 251.142Z" fill="#E6E6E6"/>
<path d="M399.278 249.417H445.016L439.021 282.716H405.273L399.278 249.417Z" fill="#F5F5F5"/>
<path d="M427.845 249.417H445.016L439.021 282.716H430.012L427.845 249.417Z" fill="#EBEBEB"/>
<path d="M114.257 97.7961V272.432C114.257 279.694 111.313 286.659 106.074 291.794C100.834 296.929 93.7272 299.813 86.317 299.813H216.117C223.528 299.813 230.636 296.929 235.877 291.794C241.119 286.66 244.065 279.695 244.068 272.432V97.7961H114.257Z" fill="#F5F5F5"/>
<path d="M223.696 142.005H139.821V224.202H223.696V142.005Z" fill="#F0F0F0"/>
<path d="M221.122 139.472H137.247V221.669H221.122V139.472Z" fill="white"/>
<path d="M157.839 233.84H136.51V254.742H157.839V233.84Z" fill="white"/>
<path d="M221.111 233.84H199.782V254.742H221.111V233.84Z" fill="white"/>
<path d="M189.475 233.84H168.146V254.742H189.475V233.84Z" fill="white"/>
<path d="M244.09 97.7961H114.257V118.58H244.09V97.7961Z" fill="#F0F0F0"/>
<path d="M122.1 91.1233V104.469C122.099 104.958 122.196 105.442 122.386 105.894C122.576 106.346 122.856 106.756 123.208 107.102C123.561 107.448 123.98 107.721 124.441 107.908C124.902 108.094 125.396 108.189 125.895 108.188C126.393 108.188 126.887 108.092 127.347 107.905C127.808 107.718 128.226 107.444 128.578 107.099C128.931 106.753 129.21 106.343 129.401 105.892C129.592 105.441 129.69 104.957 129.69 104.469V91.1233C129.687 90.1378 129.286 89.1935 128.575 88.4967C127.864 87.7998 126.901 87.4071 125.895 87.4042C124.888 87.4042 123.923 87.7961 123.212 88.4935C122.5 89.191 122.1 90.137 122.1 91.1233Z" fill="#E6E6E6"/>
<path d="M228.712 91.1233V104.469C228.712 105.455 229.112 106.401 229.824 107.099C230.535 107.796 231.501 108.188 232.507 108.188C233.006 108.189 233.5 108.094 233.961 107.908C234.422 107.721 234.841 107.448 235.194 107.102C235.546 106.756 235.826 106.346 236.016 105.894C236.206 105.442 236.303 104.958 236.302 104.469V91.1233C236.302 90.137 235.902 89.191 235.191 88.4935C234.479 87.7961 233.514 87.4042 232.507 87.4042C231.501 87.4071 230.538 87.7998 229.827 88.4967C229.116 89.1935 228.715 90.1378 228.712 91.1233Z" fill="#E6E6E6"/>
<path d="M207.383 91.1233V104.469C207.383 104.957 207.481 105.441 207.672 105.892C207.863 106.343 208.142 106.753 208.495 107.099C208.847 107.444 209.265 107.718 209.726 107.905C210.186 108.092 210.68 108.188 211.178 108.188C211.676 108.188 212.17 108.092 212.63 107.905C213.091 107.718 213.509 107.444 213.862 107.099C214.214 106.753 214.493 106.343 214.684 105.892C214.875 105.441 214.973 104.957 214.973 104.469V91.1233C214.97 90.1415 214.572 89.2004 213.866 88.5042C213.16 87.8079 212.202 87.4127 211.2 87.4042C210.7 87.4028 210.205 87.4978 209.743 87.684C209.28 87.8701 208.86 88.1437 208.506 88.489C208.151 88.8344 207.87 89.2448 207.677 89.6967C207.484 90.1487 207.384 90.6335 207.383 91.1233Z" fill="#E6E6E6"/>
<path d="M186.054 91.1233V104.469C186.053 104.958 186.15 105.442 186.34 105.894C186.53 106.346 186.81 106.756 187.162 107.102C187.515 107.448 187.934 107.721 188.395 107.908C188.856 108.094 189.35 108.189 189.849 108.188C190.849 108.18 191.804 107.784 192.507 107.087C193.21 106.39 193.603 105.449 193.6 104.469V91.1233C193.6 90.1388 193.202 89.1945 192.492 88.4973C191.783 87.8002 190.821 87.4071 189.816 87.4042C188.815 87.4128 187.858 87.8084 187.154 88.5049C186.449 89.2014 186.054 90.1425 186.054 91.1233Z" fill="#E6E6E6"/>
<path d="M164.725 91.1233V104.469C164.724 104.957 164.82 105.44 165.01 105.891C165.199 106.343 165.478 106.753 165.829 107.098C166.181 107.444 166.599 107.718 167.058 107.905C167.518 108.092 168.011 108.188 168.509 108.188C169.008 108.189 169.502 108.094 169.963 107.908C170.424 107.721 170.843 107.448 171.196 107.102C171.548 106.756 171.828 106.346 172.018 105.894C172.208 105.442 172.305 104.958 172.304 104.469V91.1233C172.304 90.137 171.904 89.191 171.192 88.4935C170.481 87.7961 169.515 87.4042 168.509 87.4042C167.504 87.4071 166.542 87.8002 165.833 88.4973C165.123 89.1945 164.725 90.1388 164.725 91.1233Z" fill="#E6E6E6"/>
<path d="M143.385 91.1233V104.469C143.385 104.957 143.483 105.441 143.674 105.892C143.865 106.343 144.144 106.753 144.497 107.099C144.849 107.444 145.267 107.718 145.728 107.905C146.188 108.092 146.682 108.188 147.18 108.188C147.678 108.188 148.172 108.092 148.632 107.905C149.093 107.718 149.511 107.444 149.863 107.099C150.216 106.753 150.495 106.343 150.686 105.892C150.877 105.441 150.975 104.957 150.975 104.469V91.1233C150.972 90.1378 150.571 89.1935 149.86 88.4967C149.149 87.7998 148.186 87.4071 147.18 87.4042C146.174 87.4071 145.211 87.7998 144.5 88.4967C143.789 89.1935 143.388 90.1378 143.385 91.1233Z" fill="#E6E6E6"/>
<path d="M204.457 288.3C204.457 291.339 205.689 294.254 207.882 296.403C210.075 298.552 213.049 299.759 216.15 299.759H70.059C66.9578 299.759 63.9836 298.552 61.7908 296.403C59.5979 294.254 58.366 291.339 58.366 288.3H204.457Z" fill="#E6E6E6"/>
<path d="M275 460.91C392.791 460.91 488.279 455.446 488.279 448.707C488.279 441.967 392.791 436.504 275 436.504C157.209 436.504 61.7209 441.967 61.7209 448.707C61.7209 455.446 157.209 460.91 275 460.91Z" fill="#F5F5F5"/>
<path opacity="0.2" d="M296.549 345.747C296.549 345.747 215.71 392.521 215.71 436.838H377.41C377.399 392.521 296.549 345.747 296.549 345.747Z" fill="#1890FF"/>
<path opacity="0.2" d="M296.549 401.555C296.549 401.555 221.903 419.676 221.903 436.838H371.195C371.195 419.676 296.549 401.555 296.549 401.555Z" fill="#1890FF"/>
<path opacity="0.3" d="M306.361 358.661C321.541 373.29 351.043 405.705 351.043 436.838H330.814C330.814 405.705 314.666 373.29 306.361 358.661Z" fill="white"/>
<path opacity="0.2" d="M296.549 345.747C296.549 345.747 215.71 298.973 215.71 254.656H377.41C377.399 298.973 296.549 345.747 296.549 345.747Z" fill="#1890FF"/>
<path opacity="0.2" d="M296.549 341.478C296.549 341.478 255.277 322.074 255.277 303.64H337.832C337.832 322.042 296.549 341.478 296.549 341.478Z" fill="#1890FF"/>
<path opacity="0.3" d="M287.738 332.832C272.569 318.204 243.1 285.789 243.1 254.656H263.329C263.285 285.789 279.4 318.204 287.738 332.832Z" fill="white"/>
<path opacity="0.3" d="M306.361 332.832C321.541 318.204 350.306 282.037 351.043 254.656H345.653C343.123 288.042 318.373 318.678 306.361 332.832Z" fill="white"/>
<path d="M366.421 239.014H357.258V240.092H366.421V239.014Z" fill="#1890FF"/>
<path d="M397.529 253.826H396.429C396.426 250.186 394.95 246.696 392.325 244.122C389.7 241.547 386.14 240.098 382.426 240.092H372.757V239.014H382.426C386.431 239.023 390.269 240.586 393.1 243.363C395.93 246.139 397.523 249.901 397.529 253.826Z" fill="#1890FF"/>
<path d="M382.415 242.787H210.683C204.462 242.787 199.419 247.729 199.419 253.826V255.486C199.419 261.583 204.462 266.525 210.683 266.525H382.415C388.636 266.525 393.679 261.583 393.679 255.486V253.826C393.679 247.729 388.636 242.787 382.415 242.787Z" fill="#1890FF"/>
<path d="M382.415 424.969H210.683C204.462 424.969 199.419 429.911 199.419 436.008V437.668C199.419 443.765 204.462 448.707 210.683 448.707H382.415C388.636 448.707 393.679 443.765 393.679 437.668V436.008C393.679 429.911 388.636 424.969 382.415 424.969Z" fill="#1890FF"/>
<path d="M154.792 328.273L147.334 321.783L160.05 302.648L167.508 309.127L154.792 328.273Z" fill="#FF8B7B"/>
<path d="M148.874 317.665L158.356 324.133C158.437 324.183 158.507 324.247 158.562 324.323C158.618 324.399 158.657 324.486 158.679 324.577C158.7 324.668 158.703 324.762 158.688 324.854C158.672 324.947 158.638 325.035 158.587 325.114L153.835 332.789C153.561 333.175 153.144 333.44 152.672 333.527C152.201 333.614 151.714 333.515 151.316 333.253C148.016 330.957 146.795 329.836 142.846 326.709C138.943 323.703 135.198 320.505 131.626 317.126C128.7 314.151 131.791 311.273 133.342 312.297C137.005 314.733 143.374 317.417 147.059 317.202C147.7 317.152 148.339 317.315 148.874 317.665Z" fill="#263238"/>
<path opacity="0.2" d="M167.497 309.138L160.039 302.648L153.923 311.865L161.568 318.085L167.497 309.138Z" fill="black"/>
<path d="M243.375 213.552C243.375 213.552 193.325 210.199 187.121 226.822C173.008 264.617 154.649 304.708 154.649 304.708L169.4 315.175C169.4 315.175 200.585 268.444 210.1 238.443C229.35 243.024 264.154 246.937 275.363 234.325C284.933 223.545 277.772 213.552 277.772 213.552H243.375Z" fill="#263238"/>
<path opacity="0.3" d="M200.508 242.927C199.342 247.541 197.571 260.757 196.471 269.522C198.902 264.908 201.212 260.229 203.291 255.658L200.508 242.927Z" fill="black"/>
<path d="M168.454 319.907L151.723 307.058L155.144 299.857L173.844 313.86L168.454 319.907Z" fill="#1890FF"/>
<path d="M144.859 317.072C145.635 317.567 146.46 317.983 147.323 318.312C147.366 318.326 147.412 318.329 147.456 318.319C147.501 318.309 147.541 318.287 147.573 318.256C147.606 318.224 147.628 318.184 147.638 318.141C147.648 318.097 147.646 318.052 147.631 318.01C147.488 317.643 146.234 314.42 144.925 314.108C144.775 314.074 144.618 314.078 144.47 314.12C144.322 314.161 144.187 314.238 144.078 314.345C143.894 314.488 143.751 314.675 143.664 314.889C143.578 315.103 143.549 315.335 143.583 315.563C143.805 316.202 144.259 316.739 144.859 317.072ZM146.982 317.665C145.255 316.932 144.177 316.123 144.056 315.509C144.037 315.359 144.06 315.207 144.122 315.068C144.184 314.93 144.282 314.81 144.408 314.722C144.459 314.669 144.523 314.629 144.595 314.608C144.666 314.588 144.742 314.586 144.815 314.604C145.519 314.776 146.432 316.382 146.982 317.665Z" fill="#1890FF"/>
<path d="M147.268 318.28C147.304 318.29 147.342 318.29 147.378 318.28C147.419 318.284 147.461 318.278 147.499 318.263C147.537 318.248 147.571 318.224 147.598 318.193C147.675 318.107 149.545 315.854 149.27 314.463C149.234 314.286 149.156 314.118 149.044 313.974C148.931 313.831 148.787 313.714 148.621 313.633C148.452 313.53 148.253 313.483 148.054 313.5C147.856 313.518 147.668 313.599 147.521 313.73C146.685 314.496 146.718 317.083 147.213 318.15C147.22 318.197 147.239 318.241 147.268 318.28ZM148.489 314.151C148.568 314.202 148.637 314.269 148.69 314.347C148.743 314.424 148.779 314.512 148.797 314.604C148.962 315.423 148.071 316.835 147.488 317.611C147.18 316.533 147.279 314.614 147.818 314.118C147.928 314.021 148.082 313.924 148.401 314.118L148.489 314.151Z" fill="#1890FF"/>
<path d="M220.55 339.581L210.925 341.467L209.143 316.21L218.922 316.512L220.55 339.581Z" fill="#FF8B7B"/>
<path d="M209.616 338.018L220.616 333.479C220.706 333.436 220.804 333.411 220.904 333.405C221.004 333.4 221.105 333.414 221.199 333.447C221.293 333.48 221.38 333.532 221.454 333.598C221.527 333.665 221.587 333.745 221.628 333.835L225.83 342.114C226.022 342.562 226.027 343.066 225.844 343.518C225.661 343.969 225.305 344.332 224.851 344.529C221.001 346.049 219.087 346.577 214.258 348.582C211.288 349.811 203.258 353.368 198.968 354.414C194.678 355.46 193.71 351.245 195.448 350.425C199.562 348.485 206.382 342.567 208.219 339.301C208.532 338.737 209.022 338.287 209.616 338.018Z" fill="#263238"/>
<path d="M206.877 341.122C207.744 340.734 208.566 340.257 209.33 339.699C209.368 339.671 209.397 339.633 209.415 339.589C209.432 339.545 209.437 339.498 209.429 339.451C209.416 339.406 209.391 339.365 209.356 339.333C209.321 339.301 209.278 339.278 209.231 339.268C208.835 339.182 205.271 338.481 204.27 339.43C204.156 339.538 204.073 339.673 204.028 339.823C203.984 339.972 203.98 340.13 204.017 340.282C204.042 340.515 204.129 340.737 204.27 340.927C204.411 341.116 204.601 341.265 204.82 341.36C205.512 341.533 206.245 341.448 206.877 341.122ZM208.56 339.635C206.965 340.713 205.656 341.176 205.007 340.928C204.862 340.863 204.738 340.761 204.649 340.631C204.56 340.502 204.509 340.351 204.501 340.195C204.48 340.122 204.479 340.044 204.498 339.97C204.517 339.897 204.556 339.829 204.611 339.775C205.15 339.268 207.13 339.398 208.56 339.635Z" fill="#1890FF"/>
<path d="M209.275 339.732C209.312 339.713 209.346 339.687 209.374 339.656C209.392 339.621 209.402 339.583 209.402 339.543C209.402 339.504 209.392 339.465 209.374 339.43C209.374 339.311 208.362 336.465 206.976 335.937C206.798 335.868 206.605 335.84 206.414 335.857C206.223 335.874 206.039 335.934 205.876 336.034C205.683 336.119 205.525 336.265 205.429 336.449C205.333 336.634 205.304 336.845 205.348 337.048C205.568 338.126 207.889 339.581 209.11 339.743C209.164 339.76 209.223 339.756 209.275 339.732ZM206.272 336.401C206.362 336.363 206.46 336.344 206.558 336.344C206.656 336.344 206.753 336.363 206.844 336.401C207.669 336.713 208.428 338.255 208.802 339.182C207.702 338.826 206.019 337.716 205.876 336.961C205.876 336.821 205.876 336.638 206.173 336.465L206.272 336.401Z" fill="#1890FF"/>
<path opacity="0.2" d="M218.933 316.522L209.143 316.21L210.078 329.404L219.824 329.232L218.933 316.522Z" fill="black"/>
<path d="M267.685 213.552C267.685 213.552 196.185 220.182 198.759 241.278C202.521 271.71 205.271 324.995 205.271 324.995L223.498 325.696C223.498 325.696 230.34 278.846 226.336 247.681C244.849 247.681 285.065 248.641 292.138 239.262C300.531 228.137 296.648 213.552 296.648 213.552H267.685Z" fill="#263238"/>
<path d="M225.511 326.796L203.632 325.728L202.851 316.404L226.842 318.021L225.511 326.796Z" fill="#1890FF"/>
<path d="M251.812 151.772C251.658 153.701 251.482 155.415 251.24 157.216C250.998 159.016 250.767 160.773 250.481 162.552C249.953 166.098 249.227 169.623 248.413 173.17C247.599 176.717 246.598 180.252 245.344 183.821C244.071 187.574 242.401 191.187 240.361 194.601C239.143 196.609 237.664 198.453 235.961 200.088C235.51 200.501 235.036 200.889 234.542 201.252C234.091 201.618 233.64 201.931 233.178 202.244C232.298 202.852 231.384 203.409 230.439 203.914C226.951 205.774 223.261 207.246 219.439 208.302C217.624 208.852 215.798 209.294 213.939 209.693C212.08 210.091 210.309 210.436 208.439 210.717C204.799 211.3 201.125 211.66 197.439 211.795C196.53 211.832 195.638 211.546 194.928 210.989C194.218 210.432 193.738 209.641 193.577 208.764C193.416 207.887 193.585 206.982 194.052 206.217C194.52 205.452 195.254 204.879 196.119 204.604L196.262 204.55C202.712 202.551 209.041 200.19 215.215 197.479C218.054 196.22 220.771 194.711 223.333 192.973C223.916 192.563 224.433 192.143 224.961 191.722C225.203 191.517 225.456 191.313 225.665 191.097C225.86 190.925 226.044 190.742 226.215 190.547C226.945 189.682 227.573 188.738 228.085 187.734C229.42 185.077 230.492 182.301 231.286 179.444C232.177 176.415 232.947 173.256 233.585 170.044C234.223 166.831 234.795 163.576 235.334 160.277C235.873 156.978 236.28 153.615 236.654 150.489V150.306C236.929 148.415 237.939 146.702 239.473 145.524C241.006 144.346 242.945 143.794 244.884 143.983C246.823 144.172 248.612 145.088 249.878 146.539C251.145 147.991 251.79 149.865 251.68 151.772H251.812Z" fill="#1890FF"/>
<path d="M197.802 202.664L192.302 202.998L196.702 212.916C196.702 212.916 206.217 212.711 206.019 208.119L204.303 205.963C203.518 204.995 202.533 204.201 201.412 203.632C200.292 203.064 199.062 202.734 197.802 202.664Z" fill="#FF8B7B"/>
<path d="M186.274 203.817L191.026 212.937H196.691L192.291 203.02L186.274 203.817Z" fill="#FF8B7B"/>
<path d="M251.02 136.486L261.657 134.33L270.127 133.133C271.337 132.939 272.567 132.885 273.79 132.971C277.04 133.26 280.124 134.514 282.628 136.566C285.132 138.617 286.938 141.368 287.804 144.452C289.927 151.998 291.841 161.258 293.304 169.462C295.35 180.856 296.406 197.975 296.604 213.541H246.213C245.113 185.351 238.997 167.187 236.918 155.922C236.292 152.521 236.824 149.013 238.432 145.937C240.04 142.861 242.634 140.389 245.817 138.9L251.02 136.486Z" fill="#1890FF"/>
<path d="M246.213 142.684C246.334 147.319 247.313 163.845 252.384 173.235C253.275 164.438 263.934 137.661 263.934 137.661L246.213 142.684Z" fill="#F5F5F5"/>
<path opacity="0.3" d="M294.459 177.202C294.459 177.029 294.459 176.867 294.393 176.684L294.294 175.908C294.239 175.488 294.184 175.067 294.129 174.668L293.964 173.515L293.799 172.437C293.799 172.135 293.7 171.822 293.656 171.531C293.546 170.841 293.436 170.173 293.315 169.516C292.952 167.5 292.567 165.408 292.149 163.306V163.134C291.731 160.978 291.302 158.897 290.84 156.795V156.655C290.653 155.749 290.455 154.865 290.246 153.971L290.015 152.979L289.619 151.265L289.289 149.928L289.223 149.648C288.783 147.88 288.332 146.144 287.87 144.506L280.225 140.56C281.105 143.87 281.941 147.514 282.733 151.243C281.818 151.713 280.974 152.304 280.225 153.001C278.399 154.596 278.465 157.992 280.291 162.013C285.346 173.51 288.144 185.839 288.541 198.352C288.772 203.429 288.915 208.571 288.981 213.563H296.681C296.461 201.198 295.757 187.874 294.459 177.202Z" fill="black"/>
<path d="M257.697 115.713L253.374 122.181L247.5 130.966C248.256 131.721 248.87 132.6 249.315 133.564C250.415 135.72 251.273 137.273 246.73 140.302C245.762 140.949 245.729 141.973 245.949 143.105C246.213 144.484 247.049 145.929 251.933 145.077C256.653 144.187 260.961 141.846 264.231 138.394C265.859 136.787 265.485 135.591 263.912 133.931C259.468 129.241 258.137 121.749 257.697 115.713Z" fill="#FF8B7B"/>
<path d="M247.313 145.239L250.426 147.158L255.486 145.056C254.293 143.876 252.756 143.088 251.086 142.803C249.632 143.275 248.33 144.116 247.313 145.239Z" fill="#263238"/>
<path d="M251.031 142.803C253.352 143.741 254.518 145.853 255.574 148.29C255.574 148.29 266.695 140.032 266.926 134.588C266.332 132.734 263.549 133.058 263.549 133.058C263.549 133.058 260.161 138.814 251.031 142.803Z" fill="white"/>
<path d="M251.031 142.803C249.946 143.233 249.025 143.982 248.395 144.948C247.764 145.914 247.455 147.048 247.511 148.193C247.511 148.193 242.561 142.501 246.587 138.2C247.679 137.638 248.84 137.214 250.041 136.938C250.041 136.938 248.831 139.31 251.031 142.803Z" fill="white"/>
<path d="M251.405 146.263H249.986C249.524 147.039 248.886 157.151 248.633 162.53C249.313 165.671 250.311 168.737 251.614 171.682C251.61 171.718 251.61 171.754 251.614 171.79C251.691 171.963 251.768 172.124 251.856 172.286C252.01 172.609 252.164 172.933 252.34 173.235C252.848 169.895 253.639 166.603 254.705 163.392C253.253 157.162 251.405 146.263 251.405 146.263Z" fill="#263238"/>
<path opacity="0.2" d="M248.952 128.799L252.56 122.536C252.626 122.687 252.714 122.87 252.802 123.043C253.118 123.825 253.376 124.628 253.572 125.447C254.232 128.239 252.032 132.206 249.601 134.071C249.502 133.898 249.414 133.715 249.315 133.532C248.882 132.627 248.323 131.785 247.654 131.031L247.511 130.923L248.952 128.799Z" fill="black"/>
<path d="M231.374 115.346C230.505 111.519 236.72 106.226 236.72 106.226L229.361 103.714C226.039 106.054 228.195 112.726 231.374 115.346Z" fill="#263238"/>
<path d="M256.168 104.286C257.906 113.858 259.468 119.378 255.794 125.49C254.643 127.497 252.953 129.157 250.908 130.291C248.864 131.425 246.541 131.989 244.193 131.922C241.844 131.855 239.559 131.161 237.585 129.913C235.61 128.665 234.022 126.912 232.991 124.843C228.866 116.952 226.721 102.636 235.114 96.3516C236.893 94.9463 239.017 94.0238 241.274 93.6766C243.531 93.3294 245.841 93.5696 247.974 94.3732C250.106 95.1768 251.986 96.5155 253.424 98.2553C254.862 99.995 255.808 102.075 256.168 104.286Z" fill="#FF8B7B"/>
<path d="M256.3 113.966L251.68 112.726V106.905C251.68 106.905 245.839 103.671 246.741 99.6287C247.188 97.356 247.817 95.1213 248.622 92.9452C248.622 92.9452 257.884 92.363 260.722 93.5273C259.987 94.3078 259.189 95.0288 258.335 95.6833C260.556 97.189 262.46 99.0995 263.945 101.31C262.785 101.564 261.701 102.077 260.777 102.809C260.777 102.809 261.987 110.797 256.3 113.966Z" fill="#263238"/>
<path d="M245.674 86.7359C249.073 88.8272 247.104 92.6649 247.104 92.6649L256.201 92.8482C255.717 90.0346 247.83 86.5958 245.674 86.7359Z" fill="#263238"/>
<path d="M249.227 101.591C248.578 103.38 241.208 105.579 234.487 105.795C231.137 105.724 227.822 105.112 224.675 103.984C225.624 103.029 226.742 102.251 227.975 101.688C223.916 100.707 218.779 97.214 217.36 94.3681C220.324 93.3301 223.525 93.1284 226.6 93.786C225.594 92.9535 224.767 91.9327 224.168 90.7832C223.569 89.6337 223.211 88.3787 223.113 87.0916C223.113 87.0916 240.317 93.7752 246.939 91.0048C254.133 87.9864 259.6 93.6459 254.87 97.9579C250.14 102.27 249.227 101.591 249.227 101.591Z" fill="#263238"/>
<path d="M261.426 111.217C261.52 113.329 260.819 115.4 259.457 117.038C257.675 119.119 254.903 117.459 254.265 114.882C253.693 112.543 254.441 108.932 256.784 107.811C259.127 106.69 261.305 108.598 261.426 111.217Z" fill="#FF8B7B"/>
<path d="M241.296 113.19C241.538 113.945 241.296 114.688 240.856 114.872C240.416 115.055 239.756 114.581 239.503 113.794C239.25 113.007 239.503 112.295 239.943 112.112C240.383 111.929 241.043 112.392 241.296 113.19Z" fill="#263238"/>
<path d="M232.771 116.208C233.013 116.952 232.771 117.707 232.331 117.879C231.891 118.052 231.231 117.599 230.978 116.801C230.725 116.004 230.978 115.303 231.418 115.13C231.858 114.958 232.518 115.454 232.771 116.208Z" fill="#263238"/>
<path d="M235.686 115.81C235.722 118.04 235.455 120.266 234.894 122.428C235.452 122.545 236.03 122.538 236.585 122.41C237.141 122.281 237.66 122.034 238.106 121.685L235.686 115.81Z" fill="#A02724"/>
<path d="M240.9 124.563C241.783 124.273 242.598 123.812 243.297 123.209C243.996 122.605 244.565 121.871 244.97 121.049C244.992 120.991 244.991 120.928 244.966 120.872C244.941 120.815 244.895 120.771 244.838 120.747C244.81 120.734 244.78 120.728 244.749 120.727C244.718 120.726 244.687 120.731 244.658 120.742C244.63 120.753 244.604 120.77 244.582 120.791C244.559 120.812 244.542 120.838 244.53 120.865C244.084 121.757 243.434 122.536 242.63 123.141C241.827 123.747 240.893 124.163 239.899 124.358C239.868 124.364 239.839 124.377 239.813 124.394C239.788 124.412 239.766 124.435 239.749 124.461C239.733 124.487 239.722 124.517 239.718 124.547C239.713 124.578 239.715 124.609 239.723 124.638C239.736 124.697 239.773 124.748 239.824 124.78C239.876 124.813 239.938 124.824 239.998 124.811C240.304 124.748 240.605 124.665 240.9 124.563Z" fill="#263238"/>
<path d="M243.188 108.77C243.256 108.731 243.313 108.675 243.353 108.609C243.388 108.559 243.412 108.502 243.424 108.443C243.436 108.384 243.436 108.322 243.424 108.263C243.412 108.204 243.387 108.148 243.352 108.098C243.318 108.048 243.273 108.005 243.221 107.973C242.603 107.567 241.893 107.316 241.153 107.241C240.413 107.165 239.665 107.269 238.975 107.541C238.919 107.567 238.868 107.604 238.826 107.65C238.784 107.695 238.752 107.748 238.731 107.805C238.71 107.863 238.701 107.924 238.704 107.985C238.707 108.046 238.723 108.106 238.749 108.161C238.776 108.216 238.814 108.266 238.86 108.307C238.906 108.348 238.96 108.379 239.019 108.4C239.078 108.421 239.14 108.43 239.202 108.426C239.265 108.423 239.326 108.408 239.382 108.382C239.921 108.177 240.503 108.103 241.078 108.167C241.653 108.231 242.203 108.43 242.682 108.749C242.756 108.799 242.842 108.828 242.932 108.831C243.021 108.835 243.11 108.814 243.188 108.77Z" fill="#263238"/>
<path d="M231.077 111.67C231.098 111.596 231.098 111.518 231.077 111.444C231.028 111.331 230.936 111.242 230.821 111.195C230.706 111.149 230.576 111.149 230.461 111.196C229.768 111.459 229.153 111.887 228.669 112.439C228.186 112.992 227.849 113.654 227.689 114.365C227.686 114.477 227.725 114.586 227.797 114.672C227.87 114.758 227.972 114.816 228.084 114.834C228.197 114.852 228.312 114.83 228.409 114.772C228.506 114.713 228.579 114.623 228.613 114.516C228.75 113.961 229.022 113.447 229.405 113.018C229.788 112.588 230.271 112.255 230.813 112.047C230.887 112.012 230.95 111.959 230.996 111.893C231.042 111.827 231.07 111.75 231.077 111.67Z" fill="#263238"/>
<path d="M285.461 139.817C286.671 141.283 287.727 142.609 288.761 144.021C289.795 145.433 290.873 146.834 291.885 148.268C293.942 151.125 295.856 154.089 297.726 157.108C299.596 160.126 301.334 163.274 302.896 166.605C304.591 170.061 305.936 173.671 306.911 177.385C307.458 179.544 307.746 181.758 307.769 183.982C307.742 186.206 307.416 188.417 306.801 190.558C305.706 194.285 304.108 197.853 302.049 201.166C301.103 202.75 300.08 204.27 299.013 205.736C297.946 207.202 296.813 208.625 295.713 209.994C293.417 212.747 290.921 215.334 288.244 217.734C287.574 218.319 286.714 218.651 285.817 218.671C284.92 218.69 284.045 218.395 283.35 217.84C282.654 217.284 282.184 216.504 282.022 215.639C281.861 214.774 282.019 213.881 282.469 213.121L282.568 212.959C285.984 207.528 288.97 201.848 291.5 195.97C292.635 193.32 293.462 190.554 293.964 187.723C294.148 186.586 294.196 185.432 294.107 184.284C293.974 183.148 293.724 182.028 293.359 180.942C292.408 178.186 291.211 175.517 289.784 172.965C288.321 170.259 286.671 167.575 284.911 164.848C283.151 162.12 281.303 159.458 279.411 156.838L276.518 152.893C275.55 151.61 274.538 150.241 273.625 149.066L273.559 148.98C272.319 147.439 271.755 145.478 271.99 143.529C272.225 141.58 273.24 139.803 274.813 138.588C276.385 137.373 278.386 136.819 280.375 137.05C282.363 137.28 284.177 138.276 285.417 139.817H285.461Z" fill="#1890FF"/>
<path d="M180.653 219.341L274.241 215.19C274.536 215.171 274.832 215.211 275.111 215.307C275.391 215.403 275.647 215.553 275.866 215.748C276.085 215.943 276.261 216.18 276.385 216.443C276.508 216.707 276.576 216.992 276.584 217.282L178.519 221.594C178.506 221.308 178.551 221.022 178.651 220.754C178.752 220.485 178.906 220.239 179.104 220.029C179.303 219.819 179.542 219.65 179.808 219.532C180.074 219.414 180.361 219.349 180.653 219.341Z" fill="#1890FF"/>
<g opacity="0.6">
<path opacity="0.6" d="M180.653 219.341L274.241 215.19C274.536 215.171 274.832 215.211 275.111 215.307C275.391 215.403 275.647 215.553 275.866 215.748C276.085 215.943 276.261 216.18 276.385 216.443C276.508 216.707 276.576 216.992 276.584 217.282L178.519 221.594C178.506 221.308 178.551 221.022 178.651 220.754C178.752 220.485 178.906 220.239 179.104 220.029C179.303 219.819 179.542 219.65 179.808 219.532C180.074 219.414 180.361 219.349 180.653 219.341Z" fill="white"/>
</g>
<path d="M165.759 176.792L232.342 173.838C232.769 173.844 233.184 173.978 233.53 174.223C233.877 174.468 234.138 174.812 234.278 175.207L247.06 214.953C247.129 215.117 247.155 215.296 247.137 215.472C247.118 215.649 247.056 215.818 246.955 215.965C246.853 216.112 246.717 216.233 246.557 216.316C246.397 216.399 246.218 216.442 246.037 216.441L179.454 219.395C179.029 219.391 178.616 219.258 178.272 219.015C177.927 218.772 177.667 218.43 177.529 218.036L164.747 178.28C164.678 178.116 164.652 177.939 164.67 177.763C164.688 177.588 164.749 177.419 164.849 177.272C164.949 177.125 165.084 177.004 165.243 176.921C165.402 176.837 165.579 176.793 165.759 176.792Z" fill="#1890FF"/>
<path opacity="0.6" d="M165.759 176.792L232.342 173.838C232.769 173.844 233.184 173.978 233.53 174.223C233.877 174.468 234.138 174.812 234.278 175.207L247.06 214.953C247.129 215.117 247.155 215.296 247.137 215.472C247.118 215.649 247.056 215.818 246.955 215.965C246.853 216.112 246.717 216.233 246.557 216.316C246.397 216.399 246.218 216.442 246.037 216.441L179.454 219.395C179.029 219.391 178.616 219.258 178.272 219.015C177.927 218.772 177.667 218.43 177.529 218.036L164.747 178.28C164.678 178.116 164.652 177.939 164.67 177.763C164.688 177.588 164.749 177.419 164.849 177.272C164.949 177.125 165.084 177.004 165.243 176.921C165.402 176.837 165.579 176.793 165.759 176.792Z" fill="white"/>
<path opacity="0.5" d="M234.3 175.197L247.082 214.942C247.153 215.107 247.181 215.287 247.164 215.465C247.147 215.643 247.085 215.814 246.983 215.962C246.882 216.111 246.744 216.233 246.583 216.316C246.422 216.4 246.241 216.443 246.059 216.441L232.364 173.828C232.791 173.833 233.206 173.968 233.553 174.213C233.899 174.458 234.16 174.801 234.3 175.197Z" fill="#1890FF"/>
<path opacity="0.5" d="M249.634 216.279L274.241 215.201C274.536 215.182 274.832 215.222 275.112 215.318C275.391 215.413 275.647 215.563 275.866 215.759C276.085 215.954 276.261 216.19 276.385 216.454C276.508 216.717 276.576 217.003 276.584 217.292L247.5 218.575C247.481 218.286 247.521 217.996 247.619 217.722C247.716 217.448 247.87 217.197 248.069 216.983C248.268 216.768 248.509 216.595 248.778 216.475C249.047 216.354 249.338 216.287 249.634 216.279Z" fill="#1890FF"/>
<path d="M280.72 212.668L274.428 213.563L280.874 222.348C280.874 222.348 291.115 220.742 289.927 216.29L287.727 214.5C286.755 213.732 285.629 213.172 284.422 212.856C283.215 212.54 281.954 212.476 280.72 212.668Z" fill="#FF8B7B"/>
<path d="M266.728 216.193L274.615 222.93L280.874 222.348L274.428 213.563L266.728 216.193Z" fill="#FF8B7B"/>
</svg>
