<svg width="32" height="30" viewBox="0 0 32 30" fill="none" xmlns="http://www.w3.org/2000/svg">
<g clip-path="url(#clip0)">
<path d="M20.4128 10.8623C24.147 14.3667 24.0957 19.9852 20.4353 23.4359C20.4284 23.443 20.4203 23.4506 20.4128 23.4576L16.2128 27.3951C12.5084 30.868 6.48161 30.8675 2.77779 27.3951C-0.926582 23.9228 -0.926582 18.2721 2.77779 14.7998L5.09692 12.6256C5.71192 12.0491 6.77104 12.4323 6.80279 13.2471C6.84329 14.2855 7.04192 15.3287 7.40842 16.3362C7.53254 16.6773 7.44386 17.0547 7.17198 17.3095L6.35404 18.0764C4.60242 19.7185 4.54748 22.3924 6.28186 24.0506C8.03336 25.7251 10.9122 25.7351 12.6772 24.0805L16.8772 20.1435C18.6391 18.4917 18.6317 15.8218 16.8772 14.1769C16.6459 13.9605 16.4129 13.7923 16.2309 13.6749C16.1021 13.592 15.9958 13.482 15.9204 13.3538C15.845 13.2255 15.8027 13.0825 15.7967 12.9362C15.7719 12.3171 16.0059 11.679 16.5278 11.1898L17.8437 9.95608C18.1887 9.63259 18.73 9.59286 19.1302 9.85466C19.5884 10.1546 20.0176 10.4918 20.4128 10.8623V10.8623ZM29.2212 2.60397C25.5174 -0.868408 19.4906 -0.868877 15.7862 2.60397L11.5862 6.54147C11.5787 6.54851 11.5706 6.55612 11.5637 6.56315C7.90336 10.0139 7.85204 15.6324 11.5862 19.1368C11.9814 19.5073 12.4106 19.8444 12.8688 20.1444C13.2689 20.4062 13.8103 20.3664 14.1553 20.0429L15.4712 18.8092C15.993 18.32 16.227 17.682 16.2023 17.0628C16.1963 16.9165 16.1539 16.7735 16.0786 16.6453C16.0032 16.517 15.8969 16.4071 15.7681 16.3242C15.5861 16.2067 15.3531 16.0385 15.1218 15.8221C13.3672 14.1772 13.3599 11.5073 15.1218 9.85548L19.3218 5.91856C21.0867 4.26394 23.9655 4.2739 25.7171 5.94845C27.4515 7.60665 27.3966 10.2805 25.6449 11.9227L24.827 12.6895C24.5551 12.9444 24.4664 13.3217 24.5905 13.6628C24.957 14.6703 25.1557 15.7136 25.1962 16.752C25.228 17.5668 26.287 17.95 26.902 17.3734L29.2212 15.1992C32.9256 11.727 32.9256 6.07624 29.2212 2.60397V2.60397Z" fill="#1890FF"/>
</g>
<defs>
<clipPath id="clip0">
<rect width="32" height="30" fill="white"/>
</clipPath>
</defs>
</svg>
